<svg width="354" height="354" xmlns="http://www.w3.org/2000/svg" xmlns:xlink="http://www.w3.org/1999/xlink" xml:space="preserve" overflow="hidden"><defs><clipPath id="clip0"><rect x="796" y="212" width="354" height="354"/></clipPath><clipPath id="clip1"><rect x="796" y="213" width="354" height="353"/></clipPath><clipPath id="clip2"><rect x="796" y="213" width="354" height="353"/></clipPath><clipPath id="clip3"><rect x="796" y="213" width="354" height="353"/></clipPath></defs><g clip-path="url(#clip0)" transform="translate(-796 -212)"><g clip-path="url(#clip1)"><g clip-path="url(#clip2)"><g clip-path="url(#clip3)"><path d="M25.7396 233.035 25.7396 290.085 81.0061 323.583 81.0061 260.632 25.7396 227.148 25.7396 233.035Z" fill="#000000" fill-rule="nonzero" fill-opacity="1" transform="matrix(1.00283 0 0 1 796 213)"/><path d="M271.994 323.583 327.26 290.085 327.26 227.115 271.994 260.595 271.994 323.583Z" fill="#000000" fill-rule="nonzero" fill-opacity="1" transform="matrix(1.00283 0 0 1 796 213)"/><path d="M132.974 108.073C134.952 107.122 137.119 106.63 139.314 106.635 147.437 106.633 154.024 113.216 154.026 121.34 154.028 127.007 150.773 132.171 145.66 134.614L131.761 141.255 172.933 166.204 172.933 103.256 117.667 69.7763 117.667 115.372Z" fill="#000000" fill-rule="nonzero" fill-opacity="1" transform="matrix(1.00283 0 0 1 796 213)"/><path d="M180.067 103.219 180.067 166.204 221.25 141.251 207.354 134.611C200.027 131.103 196.931 122.321 200.437 114.994 202.879 109.892 208.03 106.642 213.686 106.635 215.883 106.632 218.051 107.126 220.029 108.081L235.333 115.387 235.333 69.7396Z" fill="#000000" fill-rule="nonzero" fill-opacity="1" transform="matrix(1.00283 0 0 1 796 213)"/><path d="M203.155 80.8995 210.017 76.7297 235.333 61.3963 176.5 25.7396 151.183 41.073 144.322 45.2428 117.667 61.3963 176.5 97.0529 203.155 80.8995Z" fill="#000000" fill-rule="nonzero" fill-opacity="1" transform="matrix(1.00283 0 0 1 796 213)"/><path d="M118.09 234.105 143.406 218.786 99.2812 192.028 99.2812 208.575C99.2812 216.698 92.696 223.284 84.5729 223.284 76.4499 223.284 69.8646 216.698 69.8646 208.575L69.8646 192.028 59.2562 198.452 52.3948 202.607 25.7396 218.786 84.5729 254.454 111.228 238.275Z" fill="#000000" fill-rule="nonzero" fill-opacity="1" transform="matrix(1.00283 0 0 1 796 213)"/><path d="M301.944 234.105 327.26 218.786 283.135 192.028 283.135 208.575C283.135 216.698 276.55 223.284 268.427 223.284 260.304 223.284 253.719 216.698 253.719 208.575L253.719 192.028 243.11 198.449 236.249 202.607 209.594 218.786 268.427 254.454 295.082 238.275Z" fill="#000000" fill-rule="nonzero" fill-opacity="1" transform="matrix(1.00283 0 0 1 796 213)"/><path d="M209.594 233.035 209.594 274.851 220.287 268.287C227.211 264.038 236.268 266.206 240.518 273.13 244.768 280.054 242.599 289.112 235.675 293.361L225.405 299.682 264.86 323.583 264.86 260.632 209.594 227.148Z" fill="#000000" fill-rule="nonzero" fill-opacity="1" transform="matrix(1.00283 0 0 1 796 213)"/><path d="M117.027 291.703C110.242 287.236 108.363 278.115 112.829 271.33 117.248 264.618 126.236 262.695 133.015 267.011L143.406 273.74 143.406 227.115 88.1397 260.595 88.1397 323.583 128.488 299.127Z" fill="#000000" fill-rule="nonzero" fill-opacity="1" transform="matrix(1.00283 0 0 1 796 213)"/><path d="M176.272 319.906C174.854 319.907 173.466 319.497 172.275 318.726L121.024 285.529C117.579 283.377 116.531 278.841 118.683 275.396 120.834 271.951 125.371 270.903 128.816 273.055 128.884 273.097 128.951 273.141 129.018 273.185L176.379 303.859 224.133 274.557C227.595 272.433 232.124 273.518 234.249 276.98 236.373 280.442 235.288 284.971 231.825 287.096L180.115 318.822C178.958 319.53 177.628 319.906 176.272 319.906Z" fill="#000000" fill-rule="nonzero" fill-opacity="1" transform="matrix(1.00283 0 0 1 796 213)"/><path d="M91.9271 208.557 91.9271 152.132 142.487 127.981C146.153 126.229 147.704 121.838 145.953 118.172 144.201 114.507 139.81 112.955 136.144 114.707L81.4069 140.862C78.8495 142.081 77.2206 144.662 77.2188 147.495L77.2188 208.557C77.2188 212.619 80.5112 215.911 84.5729 215.911 88.6346 215.911 91.9271 212.619 91.9271 208.557Z" fill="#000000" fill-rule="nonzero" fill-opacity="1" transform="matrix(1.00283 0 0 1 796 213)"/><path d="M275.781 208.557 275.781 147.495C275.775 144.668 274.148 142.095 271.597 140.876L216.856 114.725C213.19 112.974 208.799 114.525 207.047 118.191 205.296 121.856 206.847 126.248 210.513 127.999L261.073 152.132 261.073 208.557C261.073 212.619 264.365 215.911 268.427 215.911 272.489 215.911 275.781 212.619 275.781 208.557Z" fill="#000000" fill-rule="nonzero" fill-opacity="1" transform="matrix(1.00283 0 0 1 796 213)"/></g></g></g></g></svg>