<?xml version="1.0" encoding="utf-8"?>
<!-- Generator: Adobe Illustrator 26.1.0, SVG Export Plug-In . SVG Version: 6.00 Build 0)  -->
<svg version="1.1" id="Layer_1" xmlns="http://www.w3.org/2000/svg" xmlns:xlink="http://www.w3.org/1999/xlink" x="0px" y="0px"
	 viewBox="0 0 354 354" style="enable-background:new 0 0 354 354;" xml:space="preserve">
<style type="text/css">
	.st0{clip-path:url(#SVGID_00000153670795295128887720000008612118171071221667_);}
	.st1{clip-path:url(#SVGID_00000049201408846779263430000002017068273254634942_);}
	.st2{clip-path:url(#SVGID_00000078767634553612749160000003952217800280098239_);}
	.st3{clip-path:url(#SVGID_00000175311290415546293620000017832414904842657194_);}
	.st4{fill:#FFFFFF;}
</style>
<g>
	<defs>
		<rect id="SVGID_1_" width="354" height="354"/>
	</defs>
	<clipPath id="SVGID_00000095302764188167340270000009905489464223375030_">
		<use xlink:href="#SVGID_1_"  style="overflow:visible;"/>
	</clipPath>
	<g transform="translate(-796 -212)" style="clip-path:url(#SVGID_00000095302764188167340270000009905489464223375030_);">
		<g>
			<defs>
				<rect id="SVGID_00000066492180891953736320000009887205034275858090_" x="796" y="213" width="354" height="353"/>
			</defs>
			<clipPath id="SVGID_00000045609754013550306590000009743043497921493928_">
				<use xlink:href="#SVGID_00000066492180891953736320000009887205034275858090_"  style="overflow:visible;"/>
			</clipPath>
			<g style="clip-path:url(#SVGID_00000045609754013550306590000009743043497921493928_);">
				<g>
					<defs>
						<rect id="SVGID_00000057142096876838200570000014813090770187801775_" x="796" y="213" width="354" height="353"/>
					</defs>
					<use xlink:href="#SVGID_00000057142096876838200570000014813090770187801775_"  style="overflow:visible;"/>
					<clipPath id="SVGID_00000012446427589388206430000011441463126456722590_">
						<use xlink:href="#SVGID_00000057142096876838200570000014813090770187801775_"  style="overflow:visible;"/>
					</clipPath>
					<g style="clip-path:url(#SVGID_00000012446427589388206430000011441463126456722590_);">
						<g>
							<defs>
								<rect id="SVGID_00000161608047631521305280000002803894670021457293_" x="796" y="213" width="354" height="353"/>
							</defs>
							<clipPath id="SVGID_00000137103945598120554590000003468176526674748059_">
								<use xlink:href="#SVGID_00000161608047631521305280000002803894670021457293_"  style="overflow:visible;"/>
							</clipPath>
							<g style="clip-path:url(#SVGID_00000137103945598120554590000003468176526674748059_);">
								<path class="st4" d="M821.8,446v57l55.4,33.5v-63l-55.4-33.5V446z"/>
								<path class="st4" d="M1068.8,536.6l55.4-33.5v-63l-55.4,33.5V536.6z"/>
								<path class="st4" d="M929.4,321.1c2-1,4.2-1.4,6.4-1.4c8.1,0,14.8,6.6,14.8,14.7c0,5.7-3.3,10.8-8.4,13.3l-13.9,6.6
									l41.3,24.9v-62.9L914,282.8v45.6L929.4,321.1z"/>
								<path class="st4" d="M976.6,316.2v63l41.3-25l-13.9-6.6c-7.3-3.5-10.5-12.3-6.9-19.6c2.4-5.1,7.6-8.4,13.3-8.4
									c2.2,0,4.4,0.5,6.4,1.4l15.3,7.3v-45.6L976.6,316.2z"/>
								<path class="st4" d="M999.7,293.9l6.9-4.2l25.4-15.3l-59-35.7l-25.4,15.3l-6.9,4.2L914,274.4l59,35.7L999.7,293.9z"/>
								<path class="st4" d="M914.4,447.1l25.4-15.3L895.6,405v16.5c0,8.1-6.6,14.7-14.7,14.7c-8.1,0-14.7-6.6-14.7-14.7V405
									l-10.6,6.4l-6.9,4.2l-26.7,16.2l59,35.7l26.7-16.2L914.4,447.1z"/>
								<path class="st4" d="M1098.8,447.1l25.4-15.3l-44.2-26.8v16.5c0,8.1-6.6,14.7-14.7,14.7s-14.7-6.6-14.7-14.7V405l-10.6,6.4
									l-6.9,4.2l-26.7,16.2l59,35.7l26.7-16.2L1098.8,447.1z"/>
								<path class="st4" d="M1006.2,446v41.8l10.7-6.6c6.9-4.2,16-2.1,20.3,4.8c4.3,6.9,2.1,16-4.9,20.2l-10.3,6.3l39.6,23.9v-63
									l-55.4-33.5V446z"/>
								<path class="st4" d="M913.4,504.7c-6.8-4.5-8.7-13.6-4.2-20.4c4.4-6.7,13.4-8.6,20.2-4.3l10.4,6.7v-46.6l-55.4,33.5v63
									l40.5-24.5L913.4,504.7z"/>
								<path class="st4" d="M972.8,532.9c-1.4,0-2.8-0.4-4-1.2l-51.4-33.2c-3.5-2.2-4.5-6.7-2.3-10.1c2.2-3.4,6.7-4.5,10.2-2.3
									c0.1,0,0.1,0.1,0.2,0.1l47.5,30.7l47.9-29.3c3.5-2.1,8-1,10.1,2.4c2.1,3.5,1,8-2.4,10.1l-51.9,31.7
									C975.5,532.5,974.1,532.9,972.8,532.9z"/>
								<path class="st4" d="M888.2,421.6v-56.4l50.7-24.2c3.7-1.8,5.2-6.1,3.5-9.8c-1.8-3.7-6.2-5.2-9.8-3.5l-54.9,26.2
									c-2.6,1.2-4.2,3.8-4.2,6.6v61.1c0,4.1,3.3,7.4,7.4,7.4S888.2,425.6,888.2,421.6z"/>
								<path class="st4" d="M1072.6,421.6v-61.1c0-2.8-1.6-5.4-4.2-6.6l-54.9-26.2c-3.7-1.8-8.1-0.2-9.8,3.5
									c-1.8,3.7-0.2,8.1,3.5,9.8l50.7,24.1v56.4c0,4.1,3.3,7.4,7.4,7.4S1072.6,425.6,1072.6,421.6z"/>
							</g>
						</g>
					</g>
				</g>
			</g>
		</g>
	</g>
</g>
</svg>
